<?xml version="1.0" encoding="UTF-8"?>
<svg id="MODELS_SKUGGOR" data-name="MODELS+SKUGGOR" xmlns="http://www.w3.org/2000/svg" viewBox="0 0 354 500">
  <defs>
    <style>
      .cls-1, .cls-2, .cls-3 {
        fill: #fff;
      }

      .cls-4 {
        fill: #cbcbcb;
      }

      .cls-5 {
        fill: #989898;
      }

      .cls-2 {
        opacity: .4;
      }

      .cls-6 {
        fill: #333;
      }

      .cls-7 {
        fill: #e4ebe8;
      }

      .cls-3 {
        opacity: .58;
      }

      .cls-8 {
        fill: #666;
      }
    </style>
  </defs>
  <path class="cls-2" d="M33.1,500l-12.62-28.39s-8.3-12.8-8.01-43.45l-2.87-53.04s-1.18-12.74,7.49-42.68,8.53-31.76,17.1-48.85c0,0,5.52-9.47,28.04-19.28,22.53-9.81,66.61-27.17,66.61-27.17,0,0,3.89-3.6,18.4,4.38,0,0,22.3-16.28,21.91-16.65s9.16-15.89,4.39-26.63c-4.78-10.74-6.78-23.74-8.78-29.74s-.48-56.13,1.76-61.07,32.24-61.93,107.24-69.93c0,0,29.34-3.08,70.67,9.46l-100,85.18s7.44,36.08,.89,53.22c0,0-6.18,29.02-15.87,40.08,0,0-7.01-1.13-10.35,10.47,0,0-.32,11.73,3.17,20.16l18.52,8.91,3.03,7.99s26.85,18.95,29.4,23.24,19.65,80.67,21.1,105.48l18.18,98.31H33.1Z"/>
  <g>
    <path class="cls-7" d="M254.52,271.81l-6.13,2.63-7.89-3.51c-.81-2.22-.4-4.74-1.22-7.36l15.24,8.24Z"/>
    <polygon class="cls-4" points="265.26 292.14 262.18 291.44 254.72 271.77 257.8 272.48 265.26 292.14"/>
    <polygon class="cls-8" points="265.26 292.14 258.7 294.63 255.63 293.92 262.18 291.44 265.26 292.14"/>
    <rect class="cls-5" x="251.67" y="272.33" width="7.01" height="21.03" transform="translate(-83.71 108.85) rotate(-20.77)"/>
    <polygon class="cls-4" points="265.04 312.12 262.41 310.37 262.41 289.33 265.04 291.09 265.04 312.12"/>
    <polygon class="cls-8" points="265.04 312.12 258.03 312.12 255.4 310.37 262.41 310.37 265.04 312.12"/>
    <rect class="cls-5" x="255.4" y="289.33" width="7.01" height="21.03"/>
    <polygon class="cls-4" points="265.04 332.28 262.41 330.52 262.41 309.49 265.04 311.24 265.04 332.28"/>
    <polygon class="cls-8" points="265.04 332.28 258.03 332.28 255.4 330.52 262.41 330.52 265.04 332.28"/>
    <rect class="cls-5" x="255.4" y="309.49" width="7.01" height="21.03"/>
    <polygon class="cls-7" points="172.3 243.38 208.07 257.78 201.17 263.1 167.28 246.92 172.3 243.38"/>
    <polygon class="cls-4" points="266.75 463.62 219.27 456.75 218.6 310.73 263.71 326.46 266.75 463.62"/>
    <polygon class="cls-6" points="265.59 462.55 220.57 455.97 219.84 312.02 262.64 326.9 265.59 462.55"/>
    <polygon class="cls-8" points="266.75 463.62 219.27 456.75 211.37 459.17 259.93 465.96 266.75 463.62"/>
    <polygon class="cls-5" points="211.37 459.17 219.27 456.75 218.6 310.73 211.12 311.3 211.37 459.17"/>
    <polygon class="cls-4" points="217.71 296.35 215.09 294.59 215.09 273.56 217.71 275.31 217.71 296.35"/>
    <polygon class="cls-8" points="217.71 296.35 210.7 296.35 208.07 294.59 215.09 294.59 217.71 296.35"/>
    <rect class="cls-5" x="208.07" y="273.56" width="7.01" height="21.03"/>
    <polygon class="cls-4" points="217.71 317.38 215.09 315.63 215.09 294.59 217.71 296.35 217.71 317.38"/>
    <polygon class="cls-8" points="217.71 317.38 210.7 317.38 208.07 315.63 215.09 315.63 217.71 317.38"/>
    <rect class="cls-5" x="208.07" y="294.59" width="7.01" height="21.03"/>
    <polygon class="cls-4" points="215.31 277.25 212.23 276.54 204.77 256.87 207.85 257.58 215.31 277.25"/>
    <polygon class="cls-8" points="215.31 277.25 208.75 279.73 205.67 279.02 212.23 276.54 215.31 277.25"/>
    <rect class="cls-5" x="201.71" y="257.43" width="7.01" height="21.03" transform="translate(-81.67 90.17) rotate(-20.77)"/>
    <rect class="cls-1" x="219.84" y="323.83" width="12.39" height=".25" transform="translate(-162.86 254.72) rotate(-45)"/>
    <rect class="cls-1" x="250.52" y="449.15" width="12.39" height=".25" transform="translate(-242.5 313.11) rotate(-45)"/>
    <rect class="cls-1" x="218.98" y="330.4" width="27.27" height=".25" transform="translate(-165.59 261.29) rotate(-45)"/>
    <rect class="cls-1" x="238.26" y="444.33" width="27.27" height=".25" transform="translate(-240.5 308.29) rotate(-45)"/>
    <circle class="cls-4" cx="207.64" cy="274.87" r="2.19"/>
    <circle class="cls-4" cx="212.02" cy="312.56" r="2.19"/>
    <circle class="cls-4" cx="259.34" cy="292.4" r="2.19"/>
    <circle class="cls-4" cx="252.33" cy="275.75" r="2.19"/>
    <path class="cls-1" d="M264.16,438.32c-.64,19.33-6.13,18.4-6.13,18.4,0,0-10.53,.06-12.27,0-1.74-.06,18.4,3.51,18.4,2.63v-21.03Z"/>
    <polygon class="cls-1" points="222.97 404.14 222.97 337.54 224.73 349.81 222.97 404.14"/>
  </g>
  <polygon class="cls-7" points="167.28 246.92 147.25 241.52 153.6 236.86 172.3 243.38 167.28 246.92"/>
  <path class="cls-3" d="M263.84,332.28h1.2v-40.05l.22-.08-.22-.58v-.47l-.24-.16-7-18.45-3.08-.71-1,.38,.79-.34-15.24-8.24c.81,2.62,.41,5.14,1.22,7.36l7.7,3.42,7.19,18.97v30.23l-36.8-12.84-.88,.07v-35.48l-2.63-1.75h-1.18l-5.95-15.69,.11-.09-.17-.07-.05-.14-.67-.15-34.88-14.05-18.7-6.52-6.35,4.66,20.02,5.4,32.02,15.29,6.38,16.81,2.4,.55v36.05l2.63,1.75h.43l.24,141.79,48.56,6.79,6.82-2.34-2.91-131.34Z"/>
</svg>